<svg xmlns="http://www.w3.org/2000/svg" height="1200" width="1600" version="1.1" xmlns:xlink="http://www.w3.org/1999/xlink" xmlns:svgjs="http://svgjs.com/svgjs"><rect fill="#effaff" width="1600" height="1200"></rect><g><path d="M1335.49 497.45C1334.77 486.11 1333.07 474.5 1330.48 463.34 1314.14 392.96 1269.31 307.13 1197.14 280.69 1150.61 263.81 1099.35 275.16 1049.87 275.69 982.97 276.23 917.6 256.04 850.88 249.17 748.44 238.81 644.93 261.22 555.26 311.24 437.46 376.79 337.43 490.58 284.03 614.27 252.14 688.22 256.79 774.67 311.27 836.74 336.27 865.41 368.34 886.94 402.63 903.1 472.65 936.24 551.16 947.22 628.59 951.42 723.97 956.6 820.52 951.78 914.21 931.41 1005.3 911.59 1099.97 884.88 1149.45 799.5 1164.45 773.6 1160.7 736.72 1180.62 714.48 1193.03 700.72 1213.22 694.83 1228.76 685.54 1296.72 643.83 1340.49 578.99 1335.49 497.45Z" fill="#deeff7" opacity="1" stroke-width="2" stroke="none"></path></g><g><path d="M894.66 710.25L931.11 673.8C953.84 651.07 953.84 614.62 931.11 591.89L927.58 589.15 848.81 664.39 853.51 669.1 894.66 710.25Z" fill="#46cdcf" stroke="#333333" stroke-width="2" stroke-linecap="round" stroke-linejoin="round" opacity="1"></path><path d="M708.11 523.69L744.56 487.25C767.29 464.52 803.74 464.52 826.47 487.25L829.99 489.99 752.79 567.98 749.26 564.45 708.11 523.69Z" fill="#46cdcf" stroke="#333333" stroke-width="2" stroke-linecap="round" stroke-linejoin="round" opacity="1"></path><path d="M800.21 746.7L838.22 647.54 767.29 577 672.05 618.54 800.21 746.7Z" fill="#46cdcf" stroke="#333333" stroke-width="2" stroke-linecap="round" stroke-linejoin="round" opacity="1"></path><path d="M1003.61 518.99L1052.6 470 948.35 365.75 749.26 564.85 853.51 669.1 974.61 547.99 1003.61 518.99Z" fill="#abedd8" stroke="#333333" stroke-width="2" stroke-linecap="round" stroke-linejoin="round" opacity="1"></path><path d="M1052.6 470L1070.24 348.12 948.35 365.75 942.47 371.63 1044.76 478.23 1052.6 470Z" fill="#abedd8" stroke="#333333" stroke-width="2" stroke-linecap="round" stroke-linejoin="round" opacity="1"></path><path d="M901.32 556.22C879.69 556.22 862.13 538.67 862.13 517.03 862.13 495.4 879.69 477.84 901.32 477.84 922.96 477.84 940.51 495.4 940.51 517.03 940.51 538.67 922.96 556.22 901.32 556.22Z" fill="#abedd8" stroke="#333333" stroke-width="2" stroke-linecap="round" stroke-linejoin="round" opacity="1"></path><path d="M1070.24 348.12L1115.31 303.05" stroke="#333333" stroke-width="2" stroke-linecap="round" stroke-linejoin="round" opacity="1" fill="none"></path><path d="M643.05 647.54L582.3 708.29" stroke="#333333" stroke-width="2" stroke-linecap="round" stroke-linejoin="round" opacity="1" fill="none"></path><path d="M540.76 749.83L500.78 789.81" stroke="#333333" stroke-width="2" stroke-linecap="round" stroke-linejoin="round" opacity="1" fill="none"></path><path d="M725.74 729.84L638.74 817.24" stroke="#333333" stroke-width="2" stroke-linecap="round" stroke-linejoin="round" opacity="1" fill="none"></path><path d="M770.81 775.31L633.64 912.87" stroke="#333333" stroke-width="2" stroke-linecap="round" stroke-linejoin="round" opacity="1" fill="none"></path></g><g><path d="M1181.41 920.08C1222.32 920.08 1255.49 886.91 1255.49 846.01 1255.49 805.1 1222.32 771.93 1181.41 771.93 1140.51 771.93 1107.34 805.1 1107.34 846.01 1107.34 886.91 1140.51 920.08 1181.41 920.08Z" fill="#78c7e0" stroke="#333333" stroke-width="2" stroke-linecap="round" stroke-linejoin="round" opacity="1"></path><path d="M1143.69 819.73H1160.28" stroke="#333333" stroke-width="2" stroke-linecap="round" stroke-linejoin="round" opacity="1" fill="none"></path><path d="M1143.69 846.01H1219.14" stroke="#333333" stroke-width="2" stroke-linecap="round" stroke-linejoin="round" opacity="1" fill="none"></path><path d="M1143.69 872.08H1173.12" stroke="#333333" stroke-width="2" stroke-linecap="round" stroke-linejoin="round" opacity="1" fill="none"></path><path d="M1173.12 819.73H1189.91" stroke="#333333" stroke-width="2" stroke-linecap="round" stroke-linejoin="round" opacity="1" fill="none"></path><path d="M1202.75 819.73H1219.14" stroke="#333333" stroke-width="2" stroke-linecap="round" stroke-linejoin="round" opacity="1" fill="none"></path><path d="M1189.91 872.08H1219.14" stroke="#333333" stroke-width="2" stroke-linecap="round" stroke-linejoin="round" opacity="1" fill="none"></path><path d="M1181.41 920.08V966.7C1181.41 990.8 1161.86 1009.76 1138.35 1009.76H1117.41" stroke="#333333" stroke-width="2" stroke-linecap="round" stroke-linejoin="round" opacity="1" fill="none"></path></g></svg>