<svg xmlns="http://www.w3.org/2000/svg" height="1200" width="1600" version="1.1" xmlns:xlink="http://www.w3.org/1999/xlink" xmlns:svgjs="http://svgjs.com/svgjs"><rect fill="#effaff" width="1600" height="1200"></rect><g><path d="M166.82 690.75C185.74 502.98 348.24 328.89 521.4 248.06 686.51 170.73 894.24 144.56 1075.15 149.53 1181.96 152.62 1281.35 176.45 1341.27 271.99 1371.95 320.92 1389 376.57 1405.99 431.69 1425.13 494.46 1444.58 558.07 1449.31 623.54 1464.71 840.48 1284.04 941.19 1103.27 998.42 1031.69 1021.14 958.3 1040.17 884.85 1055.75 816.04 1070.26 746.5 1081.18 676.34 1088.49 608 1095.59 536.46 1102.08 468.17 1089.38 371.86 1071.81 285.29 1010.74 230.09 930.36 176.47 852.4 158.66 770.54 166.82 690.75Z" fill="#deeff7" opacity="1" stroke-width="2" stroke="none"></path></g><g><path d="M881.91 843.43H938.88C970.73 843.43 996.75 817.32 996.75 785.37" stroke="#333333" stroke-width="2" stroke-linecap="round" stroke-linejoin="round" opacity="1" fill="none"></path><path d="M797.57 903.28C797.57 870.2 824.04 843.65 857.01 843.65" stroke="#333333" stroke-width="2" stroke-linecap="round" stroke-linejoin="round" opacity="1" fill="none"></path><path d="M850.95 699.64H367.14C335.51 699.64 309.94 673.98 309.94 642.25 309.94 610.53 335.51 584.87 367.14 584.87H444.52" stroke="#333333" stroke-width="2" stroke-linecap="round" stroke-linejoin="round" opacity="1" fill="none"></path><path d="M772.9 585.32H944.04C986.43 585.32 1021.2 550.9 1021.2 507.92 1021.2 465.39 986.88 430.73 944.04 430.73H896.93" stroke="#333333" stroke-width="2" stroke-linecap="round" stroke-linejoin="round" opacity="1" fill="none"></path><path d="M680.71 585.32H751.36" stroke="#333333" stroke-width="2" stroke-linecap="round" stroke-linejoin="round" opacity="1" fill="none"></path><path d="M1055.96 430.96C1088.26 430.96 1114.06 404.63 1114.06 372.45V286.72" stroke="#333333" stroke-width="2" stroke-linecap="round" stroke-linejoin="round" opacity="1" fill="none"></path><path d="M944.26 430.96H1032.64" stroke="#333333" stroke-width="2" stroke-linecap="round" stroke-linejoin="round" opacity="1" fill="none"></path></g><g><path d="M1200.73 424.48H892.94V755.18H1200.73V424.48Z" fill="#abedd8" stroke="#333333" stroke-width="2" stroke-linecap="round" stroke-linejoin="round" opacity="1"></path><path d="M1200.73 424.48H892.94V755.18H1200.73V424.48Z" stroke="#333333" stroke-width="2" stroke-linecap="round" stroke-linejoin="round" opacity="1" fill="none"></path></g><g><path d="M725.62 642.79H417.82V973.49H725.62V642.79Z" fill="#abedd8" stroke="#333333" stroke-width="2" stroke-linecap="round" stroke-linejoin="round" opacity="1"></path><path d="M725.62 642.79H417.82V973.49H725.62V642.79Z" stroke="#333333" stroke-width="2" stroke-linecap="round" stroke-linejoin="round" opacity="1" fill="none"></path></g><g><path d="M846.55 269.57H538.76V600.27H846.55V269.57Z" fill="#78c7e0" stroke="#333333" stroke-width="2" stroke-linecap="round" stroke-linejoin="round" opacity="1"></path><path d="M846.55 269.57H538.76V600.27H846.55V269.57Z" stroke="#333333" stroke-width="2" stroke-linecap="round" stroke-linejoin="round" opacity="1" fill="none"></path></g><g><path d="M439.49 275.92L426.87 371.6C422.84 401.6 444.98 429.04 475.16 431.42L534.8 436.35 517.78 601.36H710.78L724.68 454.65 744.44 491.97C757.79 517.21 789.8 525.81 814.13 510.81L920.05 446.78 886.58 391.72 790.72 446.96 769.13 408C758.16 388.24 738.03 375.44 715.53 373.79L492.91 358.43 513.58 212.26 448.64 207.14 441.5 260.92" fill="#ffffff" opacity="1" stroke-width="2" stroke="none"></path><path d="M439.49 275.92L426.87 371.6C422.84 401.6 444.98 429.04 475.16 431.42L534.8 436.35 517.78 601.36H710.78L724.68 454.65 744.44 491.97C757.79 517.21 789.8 525.81 814.13 510.81L920.05 446.78 886.58 391.72 790.72 446.96 769.13 408C758.16 388.24 738.03 375.44 715.53 373.79L492.91 358.43 513.58 212.26 448.64 207.14 441.5 260.92" stroke="#333333" stroke-width="2" stroke-linecap="round" stroke-linejoin="round" opacity="1" fill="none"></path><path d="M692.85 389.34H697.06C703.46 389.34 708.77 384.04 708.77 377.63V350.93C708.77 344.52 703.46 339.22 697.06 339.22H692.85C688.83 339.22 685.53 342.51 685.53 346.53V382.02C685.53 386.05 688.83 389.34 692.85 389.34Z" fill="#3d84a8" stroke="#333333" stroke-width="2" stroke-linecap="round" stroke-linejoin="round" opacity="1"></path><path d="M597.73 374.71V358.43H615.47V324.22H664.68L694.31 339.22C697.61 346.17 699.44 353.85 699.44 361.9 699.44 367.57 698.52 373.06 696.88 378.37 689.92 399.59 669.98 414.95 646.57 414.95 624.62 414.95 605.77 401.41 597.73 382.39V379.1 374.71Z" fill="#ffffff" stroke="#333333" stroke-width="2" stroke-linecap="round" stroke-linejoin="round" opacity="1"></path><path d="M674.01 365.01V375.26" stroke="#333333" stroke-width="2" stroke-linecap="round" stroke-linejoin="round" opacity="1" fill="none"></path><path d="M659.74 375.26C659.74 379.1 662.85 382.39 666.87 382.39 670.72 382.39 674.01 379.28 674.01 375.26" stroke="#333333" stroke-width="2" stroke-linecap="round" stroke-linejoin="round" opacity="1" fill="none"></path><path d="M673.09 407.82C679.68 407.82 694.5 407.82 694.5 407.82 694.5 407.82 694.5 390.44 694.5 384.77 690.47 392.45 682.61 403.06 673.09 407.82Z" fill="#48466d" stroke="#333333" stroke-width="2" stroke-linecap="round" stroke-linejoin="round" opacity="1"></path><path d="M593.7 361.9C593.7 353.67 595.53 345.99 598.82 339.22 607.42 321.47 625.53 309.03 646.57 309.03 667.61 309.03 685.9 321.29 694.31 339.22H678.4C670.72 339.22 664.5 333 664.5 325.31 664.5 333 658.28 339.22 650.59 339.22H621.14V354.4 358.97 407.82H593.7V363.55C593.7 363 593.7 362.45 593.7 361.9Z" fill="#48466d" stroke="#333333" stroke-width="2" stroke-linecap="round" stroke-linejoin="round" opacity="1"></path><path d="M599.74 389.34H595.53C589.13 389.34 583.82 384.04 583.82 377.63V350.93C583.82 344.52 589.13 339.22 595.53 339.22H599.74C603.76 339.22 607.06 342.51 607.06 346.53V382.02C607.06 386.05 603.76 389.34 599.74 389.34Z" fill="#3d84a8" stroke="#333333" stroke-width="2" stroke-linecap="round" stroke-linejoin="round" opacity="1"></path><path d="M595.53 339.22V327.69C595.53 310.86 609.25 297.14 626.08 297.14H666.51C683.34 297.14 697.06 310.86 697.06 327.69V339.22" stroke="#333333" stroke-width="2" stroke-linecap="round" stroke-linejoin="round" opacity="1" fill="none"></path></g><g><path d="M1123.78 462.27L1091.67 542.36C1090.73 544.84 1087.08 544.39 1086.59 541.81L1072.05 465.52 938.79 506.47C914.32 514.03 908.51 545.74 928.58 562.35L982.36 606.6 963.98 754.97 1148.97 755.58 1164.69 629.4 1268.72 569.54C1296.12 553.77 1290.68 512.54 1260 503.24L1123.78 462.27Z" fill="#ffffff" stroke="#333333" stroke-width="2" stroke-linecap="round" stroke-linejoin="round" opacity="1"></path><path d="M1137.96 511.75L1137.25 492.98C1136.57 475.12 1121.52 460.88 1103.64 461.2L1061.03 461.95C1043.15 462.27 1029.19 477.02 1029.86 494.89L1030.48 511.33" stroke="#333333" stroke-width="2" stroke-linecap="round" stroke-linejoin="round" opacity="1" fill="none"></path><path d="M1180.57 534.96L1080.26 580 997.26 530.82" stroke="#333333" stroke-width="2" stroke-linecap="round" stroke-linejoin="round" opacity="1" fill="none"></path><path d="M1036.84 559.65L1032.44 559.73C1025.58 559.85 1019.92 554.38 1019.67 547.65L1018.61 519.44C1018.35 512.58 1023.71 507.04 1030.45 506.92L1034.85 506.84C1039.13 506.77 1042.76 510.2 1042.92 514.47L1044.32 551.75C1044.48 556.02 1041.12 559.58 1036.84 559.65Z" fill="#3d84a8" stroke="#333333" stroke-width="2" stroke-linecap="round" stroke-linejoin="round" opacity="1"></path><path d="M1034.2 506.86C1034.2 506.86 1071.28 472.52 1113.98 498.06 1122.86 503.34 1141.67 520.75 1136.41 549.86 1128.87 569.94 1109.71 584.27 1086.92 584.67 1062.43 585.11 1041.11 569.55 1033.15 547.67 1031.14 542.4 1030.01 536.59 1029.79 530.64 1029.46 522.09 1030.98 514.04 1034.2 506.86Z" fill="#ffffff" stroke="#333333" stroke-width="2" stroke-linecap="round" stroke-linejoin="round" opacity="1"></path><path d="M1060.27 538.13L1060.48 543.56" stroke="#333333" stroke-width="2" stroke-linecap="round" stroke-linejoin="round" opacity="1" fill="none"></path><path d="M1075.24 543.3C1075.4 547.44 1072.15 550.74 1068.14 550.81 1064.12 550.88 1060.63 547.58 1060.48 543.56" stroke="#333333" stroke-width="2" stroke-linecap="round" stroke-linejoin="round" opacity="1" fill="none"></path><path d="M1082.76 474.65C1104.66 474.26 1124.05 486.74 1133.69 505.09 1137.32 512.15 1139.57 520.14 1139.89 528.69 1140.12 534.64 1139.42 540.35 1137.82 545.82 1137.35 547.25 1137.01 548.55 1136.42 549.99 1122.95 550.23 1111.78 539.55 1111.28 526.21L1110.51 505.63 1034.21 506.99C1042.31 488.19 1060.74 475.04 1082.76 474.65Z" fill="#48466d" stroke="#333333" stroke-width="2" stroke-linecap="round" stroke-linejoin="round" opacity="1"></path><path d="M1135.16 557.91L1139.57 557.83C1146.43 557.71 1151.66 552.05 1151.41 545.32L1150.34 517.1C1150.08 510.24 1144.31 504.91 1137.57 505.02L1133.17 505.1C1128.89 505.18 1125.53 508.74 1125.69 513.01L1127.1 550.28C1127.26 554.56 1130.89 557.99 1135.16 557.91Z" fill="#3d84a8" stroke="#333333" stroke-width="2" stroke-linecap="round" stroke-linejoin="round" opacity="1"></path></g><g><path d="M897.68 729.72L971.22 686.12C956.44 660.99 929.09 644.36 897.68 644.36 850.38 644.36 812.31 682.79 812.31 729.72 812.31 777.03 850.75 815.09 897.68 815.09 929.09 815.09 956.07 798.09 971.22 773.33L897.68 729.72Z" fill="#3d84a8" stroke="#333333" stroke-width="2" stroke-linecap="round" stroke-linejoin="round" opacity="1"></path></g><g><path d="M1115.9 375.37C1163.34 375.37 1201.8 336.91 1201.8 289.47 1201.8 242.03 1163.34 203.57 1115.9 203.57 1068.46 203.57 1030 242.03 1030 289.47 1030 336.91 1068.46 375.37 1115.9 375.37Z" fill="#3d84a8" stroke="#333333" stroke-width="2" stroke-linecap="round" stroke-linejoin="round" opacity="1"></path><path d="M1154.79 258.27C1161.63 266.82 1165.69 277.72 1165.69 289.47 1165.69 317.03 1143.47 339.26 1115.9 339.26 1088.34 339.26 1066.11 317.03 1066.11 289.47 1066.11 261.9 1088.34 239.68 1115.9 239.68 1127.87 239.68 1138.76 243.95 1147.31 250.79" fill="#abedd8" opacity="1" stroke-width="2" stroke="none"></path><path d="M1154.79 258.27C1161.63 266.82 1165.69 277.72 1165.69 289.47 1165.69 317.03 1143.47 339.26 1115.9 339.26 1088.34 339.26 1066.11 317.03 1066.11 289.47 1066.11 261.9 1088.34 239.68 1115.9 239.68 1127.87 239.68 1138.76 243.95 1147.31 250.79" stroke="#333333" stroke-width="2" stroke-linecap="round" stroke-linejoin="round" opacity="1" fill="none"></path><path d="M1145.6 289.47C1145.6 305.92 1132.35 319.17 1115.9 319.17 1099.45 319.17 1086.2 305.92 1086.2 289.47H1145.6Z" fill="#3d84a8" stroke="#333333" stroke-width="2" stroke-linecap="round" stroke-linejoin="round" opacity="1"></path><path d="M1104.15 266.18V275.15" stroke="#333333" stroke-width="2" stroke-linecap="round" stroke-linejoin="round" opacity="1" fill="none"></path><path d="M1127.65 266.18V275.15" stroke="#333333" stroke-width="2" stroke-linecap="round" stroke-linejoin="round" opacity="1" fill="none"></path></g><g><path d="M418.61 973.65H662.7V928.9H438.12L418.61 973.65Z" fill="#48466d" stroke="#333333" stroke-width="2" stroke-linecap="round" stroke-linejoin="round" opacity="1"></path><path d="M665.86 865.51C679.48 881.58 697.84 892.76 718.35 897.64L806.4 918.58 821.75 854.18 723.22 830.66 654.67 742.18C647.93 733.43 637.46 728.27 626.42 728.27H589.13C549.55 728.27 513.84 751.79 498.35 788.21L463.07 870.82 457.76 883.15 434.67 936.93H595.3L681.2 1002.47 699.56 978.52 721.36 949.84 662.56 905.1V861.93L665.86 865.51Z" fill="#ffffff" stroke="#333333" stroke-width="2" stroke-linecap="round" stroke-linejoin="round" opacity="1"></path><path d="M662.7 861.79V821.2" stroke="#333333" stroke-width="2" stroke-linecap="round" stroke-linejoin="round" opacity="1" fill="none"></path><path d="M662.7 811.59V800.69" stroke="#333333" stroke-width="2" stroke-linecap="round" stroke-linejoin="round" opacity="1" fill="none"></path><path d="M657.83 709.62C657.83 709.62 623.26 679.36 585.83 703.03 578.09 707.9 561.6 723.96 567.33 750.07 574.79 767.99 592.43 780.61 613.08 780.61 649.51 780.47 673.46 742.46 657.83 709.62Z" fill="#ffffff" stroke="#333333" stroke-width="2" stroke-linecap="round" stroke-linejoin="round" opacity="1"></path><path d="M638.61 735.44V743.33" stroke="#333333" stroke-width="2" stroke-linecap="round" stroke-linejoin="round" opacity="1" fill="none"></path><path d="M625.41 743.33C625.41 747.05 628.43 749.92 632.01 749.92 635.6 749.92 638.61 746.91 638.61 743.33" stroke="#333333" stroke-width="2" stroke-linecap="round" stroke-linejoin="round" opacity="1" fill="none"></path><path d="M613.08 681.37C577.66 681.37 553.71 717.51 567.33 749.92 579.38 749.92 589.13 740.17 589.13 728.12V709.62H657.83C649.79 692.99 632.87 681.37 613.08 681.37Z" fill="#48466d" stroke="#333333" stroke-width="2" stroke-linecap="round" stroke-linejoin="round" opacity="1"></path><path d="M568.34 709.62H691.96" stroke="#333333" stroke-width="2" stroke-linecap="round" stroke-linejoin="round" opacity="1" fill="none"></path><path d="M662.7 904.95L575.22 838.27 575.65 838.12C592 838.12 605.19 824.93 605.19 808.58" stroke="#333333" stroke-width="2" stroke-linecap="round" stroke-linejoin="round" opacity="1" fill="none"></path><path d="M496.77 791.94C483.43 822.92 493.04 858.92 519.72 879.43L595.15 936.93" stroke="#333333" stroke-width="2" stroke-linecap="round" stroke-linejoin="round" opacity="1" fill="none"></path></g><g><path d="M371.46 461.95C384.59 453.67 400.08 448.93 416.65 448.93 463.57 448.93 501.55 486.91 501.55 533.83 501.55 580.74 463.57 618.72 416.65 618.72 369.74 618.72 331.76 580.74 331.76 533.83 331.76 507.9 343.38 484.66 361.78 469.05" fill="#3d84a8" opacity="1" stroke-width="2" stroke="none"></path><path d="M371.46 461.95C384.59 453.67 400.08 448.93 416.65 448.93 463.57 448.93 501.55 486.91 501.55 533.83 501.55 580.74 463.57 618.72 416.65 618.72 369.74 618.72 331.76 580.74 331.76 533.83 331.76 507.9 343.38 484.66 361.78 469.05" stroke="#333333" stroke-width="2" stroke-linecap="round" stroke-linejoin="round" opacity="1" fill="none"></path><path d="M462.6 518.98C458.29 518.98 454.53 520.81 451.84 523.6V498.43H426.66C429.57 501.12 431.29 504.99 431.29 509.19 431.29 517.36 424.62 524.04 416.44 524.04 408.26 524.04 401.59 517.36 401.59 509.19 401.59 504.88 403.42 501.12 406.22 498.43H381.04V569.33H451.95V544.16C454.64 547.06 458.51 548.78 462.7 548.78 470.88 548.78 477.55 542.11 477.55 533.93 477.55 525.76 470.88 518.98 462.6 518.98Z" fill="#abedd8" stroke="#333333" stroke-width="2" stroke-linecap="round" stroke-linejoin="round" opacity="1"></path></g><g><path d="M1090.12 1018.56H876.68L938.1 870.83H1151.54L1090.12 1018.56Z" fill="#48466d" opacity="1" stroke-width="2" stroke="none"></path><path d="M1108.34 974.86L1090.12 1018.56H1042.83" stroke="#333333" stroke-width="2" stroke-linecap="round" stroke-linejoin="round" opacity="1" fill="none"></path><path d="M1034.27 1018.56H1024.02" stroke="#333333" stroke-width="2" stroke-linecap="round" stroke-linejoin="round" opacity="1" fill="none"></path><path d="M1024.02 1018.56H923.96" stroke="#333333" stroke-width="2" stroke-linecap="round" stroke-linejoin="round" opacity="1" fill="none"></path><path d="M923.96 1018.56H876.68L894.79 974.86" stroke="#333333" stroke-width="2" stroke-linecap="round" stroke-linejoin="round" opacity="1" fill="none"></path><path d="M906.24 947.48L919.88 914.53" stroke="#333333" stroke-width="2" stroke-linecap="round" stroke-linejoin="round" opacity="1" fill="none"></path><path d="M919.88 914.53L938.1 870.83H985.39" stroke="#333333" stroke-width="2" stroke-linecap="round" stroke-linejoin="round" opacity="1" fill="none"></path><path d="M993.95 870.83H1004.2" stroke="#333333" stroke-width="2" stroke-linecap="round" stroke-linejoin="round" opacity="1" fill="none"></path><path d="M1004.2 870.83H1104.26" stroke="#333333" stroke-width="2" stroke-linecap="round" stroke-linejoin="round" opacity="1" fill="none"></path><path d="M1104.26 870.83H1151.54L1133.42 914.53" stroke="#333333" stroke-width="2" stroke-linecap="round" stroke-linejoin="round" opacity="1" fill="none"></path><path d="M1121.98 941.91L1108.34 974.86" stroke="#333333" stroke-width="2" stroke-linecap="round" stroke-linejoin="round" opacity="1" fill="none"></path><path d="M1016.45 952.36C1023.77 952.36 1029.69 946.43 1029.69 939.12 1029.69 931.8 1023.77 925.88 1016.45 925.88 1009.14 925.88 1003.21 931.8 1003.21 939.12 1003.21 946.43 1009.14 952.36 1016.45 952.36Z" fill="#78c7e0" stroke="#333333" stroke-width="2" stroke-linecap="round" stroke-linejoin="round" opacity="1"></path><path d="M805.69 1026.63H1094.8V1007.41H824.91C814.26 1007.41 805.69 1016.07 805.69 1026.63Z" fill="#48466d" stroke="#333333" stroke-width="2" stroke-linecap="round" stroke-linejoin="round" opacity="1"></path></g></svg>