<svg xmlns="http://www.w3.org/2000/svg" height="1200" width="1600" version="1.1" xmlns:xlink="http://www.w3.org/1999/xlink" xmlns:svgjs="http://svgjs.com/svgjs"><rect fill="#edede4" width="1600" height="1200"></rect><g><path d="M1224.99 610.11C1154.98 590.69 1082.36 588.65 1056.16 458.5 1046.8 411.48 1042.68 348.8 1016.48 306.89 980.92 249.99 913.91 215.24 842.03 215.24H725.24C573.63 215.24 441.49 311.32 409.67 446.23 398.81 491.55 402.93 544.36 371.86 586.26 353.89 610.45 326.19 629.19 301.49 649.29 179.45 748.43 176.45 860.86 239.72 928.66 278.65 970.23 329.19 986.92 413.04 984.54H1197.66V984.2C1413.28 984.2 1507.99 688.13 1224.99 610.11Z" fill="#e1e0d8" opacity="1" stroke-width="1.5" stroke="none"></path></g><g><path d="M1180.52 552.57L1015.13 390.78H878.71C855.49 390.78 811.45 405.62 811.45 405.62L670 404.66 619.98 316.34 414.62 559.52 613.99 707.19V709.1L584.32 743.81C571.15 759.13 573.07 782.1 588.38 795.27 603.7 808.43 626.68 806.52 639.84 791.2L645.59 785.46C632.42 800.77 634.34 823.75 649.66 836.91 664.97 850.08 687.95 848.16 701.12 832.85L717.87 814.18C706.62 827.34 708.3 846.97 721.46 858.22 734.62 869.46 754.25 867.79 765.5 854.63L785.12 832.13C775.55 843.38 776.99 860.13 788 869.7 798.29 878.56 813.61 878.08 823.42 868.99L827.49 872.1C845.2 885.26 870.33 880.47 882.06 862.05 892.83 845.29 889.72 822.31 873.68 810.35L889.24 821.84C906.95 835 932.08 830.21 943.81 811.78 954.58 795.03 950.51 772.77 934.48 760.8L948.84 772.29C966.55 785.46 991.68 780.67 1003.41 762.24 1014.18 745.48 1010.11 723.23 994.07 711.26L1000.77 716.29 1012.98 725.38C1030.69 738.54 1055.82 733.76 1067.55 715.33 1076.17 701.69 1075.21 684.45 1065.87 672.01L1180.52 552.57Z" fill="#ffc000" opacity="1" stroke-width="1.5" stroke="none"></path><path d="M765.5 854.63L852.14 753.14C863.39 739.98 861.71 720.35 848.55 709.1" stroke="#000000" stroke-width="1.5" stroke-linecap="round" stroke-linejoin="round" opacity="1" fill="none"></path><path d="M666.17 488.67L797.81 412.56C802.36 409.93 806.67 407.53 811.45 405.62" stroke="#000000" stroke-width="1.5" stroke-linecap="round" stroke-linejoin="round" opacity="1" fill="none"></path><path d="M826.05 492.74L1065.87 672.25" stroke="#000000" stroke-width="1.5" stroke-linecap="round" stroke-linejoin="round" opacity="1" fill="none"></path><path d="M994.07 711.26L871.29 620.55" stroke="#000000" stroke-width="1.5" stroke-linecap="round" stroke-linejoin="round" opacity="1" fill="none"></path><path d="M934.48 760.8L826.05 681.34" stroke="#000000" stroke-width="1.5" stroke-linecap="round" stroke-linejoin="round" opacity="1" fill="none"></path><path d="M613.99 709.1L685.8 624.86C698.72 609.78 721.22 607.62 736.54 620.07" stroke="#000000" stroke-width="1.5" stroke-linecap="round" stroke-linejoin="round" opacity="1" fill="none"></path><path d="M640.08 791.2L741.56 672.01C754.73 656.69 751.86 633.23 736.54 620.07" stroke="#000000" stroke-width="1.5" stroke-linecap="round" stroke-linejoin="round" opacity="1" fill="none"></path><path d="M848.55 709.1C835.39 697.86 815.76 699.53 804.51 712.69L717.87 814.18" stroke="#000000" stroke-width="1.5" stroke-linecap="round" stroke-linejoin="round" opacity="1" fill="none"></path><path d="M896.42 742.61C885.17 733.04 868.42 734.48 858.84 745.48L854.06 750.75" stroke="#000000" stroke-width="1.5" stroke-linecap="round" stroke-linejoin="round" opacity="1" fill="none"></path><path d="M825.57 866.83L899.53 780.19C909.1 768.94 907.67 752.19 896.66 742.61" stroke="#000000" stroke-width="1.5" stroke-linecap="round" stroke-linejoin="round" opacity="1" fill="none"></path><path d="M826.05 492.74L708.53 561.91C688.43 573.64 662.58 566.7 650.85 546.35 639.13 526.25 646.07 500.4 666.41 488.67" stroke="#000000" stroke-width="1.5" stroke-linecap="round" stroke-linejoin="round" opacity="1" fill="none"></path><path d="M801.4 716.52C814.8 700.97 811.93 676.55 796.37 663.39 780.82 649.99 757.84 652.86 744.44 668.42" stroke="#000000" stroke-width="1.5" stroke-linecap="round" stroke-linejoin="round" opacity="1" fill="none"></path><path d="M858.84 730.65L844.24 748.12C836.34 757.21 822.46 758.17 813.37 750.27 804.27 742.37 803.31 728.49 811.21 719.4L826.05 702.4" stroke="#000000" stroke-width="1.5" stroke-linecap="round" stroke-linejoin="round" opacity="1" fill="none"></path><path d="M904.8 760.32L892.35 774.68C885.89 782.1 874.64 782.82 867.22 776.36 859.8 769.9 859.08 758.65 865.54 751.23L877.51 737.35" stroke="#000000" stroke-width="1.5" stroke-linecap="round" stroke-linejoin="round" opacity="1" fill="none"></path><path d="M809.06 686.61L790.15 708.39C781.3 718.68 765.5 719.88 755.21 710.78 744.92 701.92 743.72 686.13 752.81 675.84L771 655.49" stroke="#000000" stroke-width="1.5" stroke-linecap="round" stroke-linejoin="round" opacity="1" fill="none"></path><path d="M748.98 642.81L729.36 665.54C720.5 675.84 704.71 677.03 694.41 667.94 684.12 659.08 682.93 643.29 692.02 632.99L710.21 612.65" stroke="#000000" stroke-width="1.5" stroke-linecap="round" stroke-linejoin="round" opacity="1" fill="none"></path><path d="M665.21 492.02C671.2 496.09 678.62 496.81 685.8 495.85 701.83 493.22 719.31 479.57 717.87 458.99" stroke="#000000" stroke-width="1.5" stroke-linecap="round" stroke-linejoin="round" opacity="1" fill="none"></path></g><g><path d="M530 174.42L492.79 239.03 530 303.23 567.21 239.03 530 174.42Z" fill="#0152bf" opacity="1" stroke-width="1.5" stroke="none"></path></g><g><path d="M379.95 826.96L333.47 907.66 379.95 987.86 426.43 907.66 379.95 826.96Z" fill="#0152bf" opacity="1" stroke-width="1.5" stroke="none"></path></g><g><path d="M1203.71 670.01C1211.4 666.97 1243.95 656.42 1267.57 690.23 1267.75 690.58 1268.46 690.41 1268.46 690.05 1269.71 683.25 1278.3 648.73 1314.97 644.79 1315.51 644.79 1315.69 644.07 1315.15 643.9 1307.28 639.42 1270.25 616.17 1277.23 574.49 1277.23 573.95 1276.69 573.59 1276.33 574.13 1270.43 582.18 1245.39 611.16 1200.13 589.87 1199.59 589.69 1199.23 590.23 1199.59 590.59 1205.85 598.46 1229.46 632.27 1203.35 669.3 1202.81 669.66 1203.35 670.19 1203.71 670.01Z" fill="#f16b07" opacity="1" stroke-width="1.5" stroke="none"></path></g></svg>